<svg width="21" height="20" viewBox="0 0 21 20" fill="none" xmlns="http://www.w3.org/2000/svg">
<path d="M7.87051 2.2802C8.59839 2.02575 9.39646 2.36359 9.65268 3.03445C9.8488 3.54807 9.67019 4.10756 9.24971 4.45608L9.47447 5.06698L9.83379 5.47766C9.9158 5.57164 10.0405 5.61632 10.1657 5.60073C10.5032 5.55864 10.8385 5.55609 11.1667 5.58926C11.2779 5.60063 11.3887 5.56393 11.4688 5.48688L11.7298 5.23691L11.9233 4.6837C11.7607 4.46253 11.7064 4.16912 11.804 3.8899C11.9697 3.41655 12.5068 3.17056 12.9832 3.36277C13.3936 3.52814 13.6159 3.9798 13.4943 4.40108C13.417 4.66941 13.2229 4.8708 12.9845 4.97089L12.7703 5.58396L12.8177 5.92125C12.834 6.03719 12.9033 6.13832 13.0048 6.19875C13.3461 6.40305 13.6593 6.6531 13.9341 6.94243C14.0264 7.03982 14.1646 7.08127 14.2975 7.0544L14.9816 6.91651L15.7554 6.49025C15.7605 6.11436 15.9647 5.75036 16.3226 5.55314C16.8638 5.25515 17.5475 5.45228 17.8337 5.99451C18.0921 6.48368 17.9271 7.10004 17.4554 7.40308C17.0871 7.63928 16.6386 7.63202 16.293 7.43229L15.5146 7.8608L15.0793 8.31818C14.9625 8.44089 14.9205 8.61407 14.9644 8.77594C14.9647 8.7769 14.9648 8.77754 14.9651 8.77849C15.0403 9.05747 15.0856 9.33791 15.1038 9.61599C15.1144 9.78165 15.2087 9.93044 15.3569 10.0092L15.9223 10.3096L17.0441 10.5157C17.2425 10.3446 17.5153 10.2613 17.7937 10.3122C18.2928 10.404 18.6129 10.8922 18.4834 11.3849C18.3721 11.8069 17.9514 12.0888 17.5125 12.0349C17.2133 11.9981 16.9721 11.8208 16.8431 11.5818L15.7139 11.3745L15.0168 11.4605C14.8883 11.4767 14.7759 11.5565 14.7232 11.6731C14.5133 12.1333 14.2243 12.5568 13.868 12.9227C13.7795 13.0136 13.7459 13.1435 13.7776 13.2649L13.9488 13.926L14.3743 14.5862C14.8448 14.5152 15.3336 14.7144 15.6038 15.1338C15.967 15.6972 15.7992 16.4451 15.23 16.8111C14.6612 17.1769 13.8891 17.0208 13.5187 16.4644C13.2594 16.0749 13.258 15.5935 13.4704 15.2109L13.0186 14.5101L12.4619 14.0587C12.3795 13.9915 12.2669 13.974 12.166 14.0098C12.0539 14.0496 11.9397 14.0851 11.8229 14.1163C11.1882 14.2854 10.5487 14.3089 9.94079 14.2084C9.85167 14.1939 9.76042 14.2192 9.69203 14.2778L9.39177 14.5355L9.16739 15.0774C9.31735 15.3074 9.35497 15.6032 9.24188 15.8767C9.04971 16.3407 8.4997 16.557 8.03512 16.339C7.63505 16.1514 7.43858 15.6881 7.58365 15.2739C7.67602 15.0101 7.88066 14.8196 8.12437 14.7328L8.37292 14.1321L8.32872 13.6053C7.88461 13.3317 7.48972 12.9801 7.16722 12.564L6.40598 12.6404L5.69263 12.9901C5.69583 13.4615 5.44857 13.9108 5.01633 14.1292C4.40557 14.4375 3.65731 14.1684 3.34525 13.5278C3.03328 12.8875 3.27507 12.1185 3.88583 11.8101C4.34289 11.5793 4.87664 11.6719 5.24719 12.0016L5.91995 11.6717L6.38764 11.177C6.4182 11.1446 6.42962 11.0991 6.41819 11.0567L6.41802 11.0561C6.20498 10.2654 6.22942 9.46542 6.44782 8.72959C6.45954 8.68922 6.45096 8.64572 6.42355 8.61373L6.02281 8.14096L5.15767 7.6949C4.91868 7.79925 4.63574 7.79981 4.3873 7.67157C3.93848 7.43989 3.77821 6.88117 4.04749 6.44651C4.28389 6.06537 4.78538 5.91944 5.19165 6.11325C5.45463 6.23864 5.6238 6.47411 5.67322 6.735L6.53837 7.18106L7.15497 7.23647C7.19777 7.24044 7.23954 7.22248 7.26684 7.18958C7.54761 6.84788 7.88153 6.546 8.26059 6.29805C8.36459 6.22968 8.42945 6.11671 8.43147 5.99384L8.43951 5.44153L8.19977 4.79054C7.67579 4.75487 7.20264 4.44321 7.01625 3.95535C6.76003 3.28449 7.14254 2.53432 7.87051 2.2802Z" fill="#EC5863"/>
<path d="M13.856 9.07405C13.3933 7.35688 11.6015 6.34238 9.85385 6.80809C8.10618 7.2738 7.06447 9.04338 7.52713 10.7605C7.98978 12.4777 9.7816 13.4922 11.5293 13.0265C13.2769 12.5608 14.3186 10.7912 13.856 9.07405Z" fill="#F58A97"/>
<path d="M11.2739 12.0788C9.69019 12.5009 8.07027 11.7074 7.43596 10.277C7.45355 10.4379 7.48372 10.5994 7.52713 10.7605C7.98979 12.4778 9.78156 13.4922 11.5293 13.0265C13.277 12.5608 14.3187 10.7913 13.856 9.07405C13.8126 8.91295 13.7575 8.75803 13.6918 8.60994C13.8616 10.1641 12.8576 11.6568 11.2739 12.0788Z" fill="#F07281"/>
<path d="M6.34812 16.6818C6.21637 16.1928 5.70611 15.9039 5.20842 16.0365C4.71073 16.1691 4.41408 16.673 4.54583 17.162C4.67758 17.651 5.18784 17.9399 5.68553 17.8073C6.18322 17.6747 6.47987 17.1708 6.34812 16.6818Z" fill="#EB5569"/>
<path d="M17.9859 13.84C17.8988 13.517 17.5618 13.3262 17.2331 13.4138C16.9043 13.5014 16.7084 13.8342 16.7954 14.1572C16.8824 14.4802 17.2195 14.671 17.5482 14.5834C17.8769 14.4958 18.0729 14.163 17.9859 13.84Z" fill="#EB5569"/>
<path d="M16.352 2.76665C16.2239 2.29091 15.7274 2.00984 15.2432 2.13887C14.759 2.26789 14.4704 2.75815 14.5986 3.2339C14.7268 3.70964 15.2232 3.99071 15.7074 3.86168C16.1916 3.73266 16.4802 3.2424 16.352 2.76665Z" fill="#EB5569"/>
<path d="M10.8934 10.8864C10.7739 10.4429 10.311 10.1808 9.85962 10.3011C9.4082 10.4214 9.13913 10.8785 9.25864 11.322C9.37814 11.7656 9.84096 12.0276 10.2924 11.9073C10.7438 11.787 11.0129 11.3299 10.8934 10.8864Z" fill="#EB5569"/>
<path d="M12.9974 9.6348C12.9161 9.33291 12.6011 9.15455 12.2938 9.23642C11.9865 9.3183 11.8034 9.62941 11.8847 9.93131C11.9661 10.2332 12.2811 10.4116 12.5884 10.3297C12.8956 10.2478 13.0788 9.9367 12.9974 9.6348Z" fill="#EB5569"/>
<path d="M10.7797 8.38606C10.7114 8.13255 10.4469 7.98278 10.1889 8.05153C9.93085 8.12029 9.77706 8.38153 9.84536 8.63504C9.91366 8.88855 10.1782 9.03832 10.4362 8.96957C10.6942 8.90081 10.848 8.63957 10.7797 8.38606Z" fill="#EB5569"/>
</svg>
