<svg width="143" height="44" viewBox="0 0 143 44" fill="none" xmlns="http://www.w3.org/2000/svg">
<path d="M54.462 28.1415C53.322 28.1415 52.338 27.9555 51.51 27.5835C50.694 27.1995 50.058 26.6475 49.602 25.9275C49.158 25.1955 48.912 24.3075 48.864 23.2635C48.852 22.7475 48.846 22.2015 48.846 21.6255C48.846 21.0375 48.852 20.4795 48.864 19.9515C48.912 18.9315 49.164 18.0675 49.62 17.3595C50.076 16.6515 50.718 16.1115 51.546 15.7395C52.374 15.3675 53.346 15.1815 54.462 15.1815C55.362 15.1815 56.16 15.2955 56.856 15.5235C57.552 15.7395 58.134 16.0335 58.602 16.4055C59.082 16.7775 59.442 17.1855 59.682 17.6295C59.934 18.0735 60.066 18.5115 60.078 18.9435C60.09 19.0515 60.054 19.1415 59.97 19.2135C59.898 19.2855 59.808 19.3215 59.7 19.3215H57.072C56.94 19.3215 56.838 19.3035 56.766 19.2675C56.706 19.2195 56.652 19.1535 56.604 19.0695C56.52 18.8895 56.394 18.7035 56.226 18.5115C56.07 18.3075 55.848 18.1335 55.56 17.9895C55.284 17.8455 54.918 17.7735 54.462 17.7735C53.778 17.7735 53.238 17.9535 52.842 18.3135C52.458 18.6735 52.248 19.2495 52.212 20.0415C52.176 21.0735 52.176 22.1175 52.212 23.1735C52.248 24.0135 52.47 24.6195 52.878 24.9915C53.286 25.3635 53.826 25.5495 54.498 25.5495C54.954 25.5495 55.356 25.4715 55.704 25.3155C56.064 25.1595 56.346 24.9195 56.55 24.5955C56.754 24.2595 56.856 23.8335 56.856 23.3175V22.9755H55.164C55.032 22.9755 54.918 22.9335 54.822 22.8495C54.738 22.7535 54.696 22.6395 54.696 22.5075V21.1755C54.696 21.0435 54.738 20.9355 54.822 20.8515C54.918 20.7555 55.032 20.7075 55.164 20.7075H59.7C59.832 20.7075 59.94 20.7555 60.024 20.8515C60.108 20.9355 60.15 21.0435 60.15 21.1755V23.2275C60.15 24.2595 59.916 25.1415 59.448 25.8735C58.98 26.6055 58.314 27.1695 57.45 27.5655C56.598 27.9495 55.602 28.1415 54.462 28.1415ZM66.4451 28.1415C65.4371 28.1415 64.5851 27.9795 63.8891 27.6555C63.2051 27.3315 62.6771 26.8695 62.3051 26.2695C61.9451 25.6575 61.7411 24.9315 61.6931 24.0915C61.6811 23.8515 61.6751 23.5815 61.6751 23.2815C61.6751 22.9695 61.6811 22.6995 61.6931 22.4715C61.7411 21.6195 61.9571 20.8935 62.3411 20.2935C62.7251 19.6935 63.2591 19.2315 63.9431 18.9075C64.6391 18.5835 65.4731 18.4215 66.4451 18.4215C67.4291 18.4215 68.2631 18.5835 68.9471 18.9075C69.6431 19.2315 70.1831 19.6935 70.5671 20.2935C70.9511 20.8935 71.1671 21.6195 71.2151 22.4715C71.2271 22.6995 71.2331 22.9695 71.2331 23.2815C71.2331 23.5815 71.2271 23.8515 71.2151 24.0915C71.1671 24.9315 70.9571 25.6575 70.5851 26.2695C70.2251 26.8695 69.6971 27.3315 69.0011 27.6555C68.3171 27.9795 67.4651 28.1415 66.4451 28.1415ZM66.4451 25.9455C66.9851 25.9455 67.3751 25.7835 67.6151 25.4595C67.8671 25.1355 68.0111 24.6495 68.0471 24.0015C68.0591 23.8215 68.0651 23.5815 68.0651 23.2815C68.0651 22.9815 68.0591 22.7415 68.0471 22.5615C68.0111 21.9255 67.8671 21.4455 67.6151 21.1215C67.3751 20.7855 66.9851 20.6175 66.4451 20.6175C65.9171 20.6175 65.5271 20.7855 65.2751 21.1215C65.0231 21.4455 64.8851 21.9255 64.8611 22.5615C64.8491 22.7415 64.8431 22.9815 64.8431 23.2815C64.8431 23.5815 64.8491 23.8215 64.8611 24.0015C64.8851 24.6495 65.0231 25.1355 65.2751 25.4595C65.5271 25.7835 65.9171 25.9455 66.4451 25.9455Z" fill="black"/>
<path d="M78.3674 28.1415C77.2274 28.1415 76.2494 27.9555 75.4334 27.5835C74.6294 27.2115 73.9994 26.6655 73.5434 25.9455C73.0994 25.2255 72.8534 24.3315 72.8054 23.2635C72.7934 22.7715 72.7874 22.2435 72.7874 21.6795C72.7874 21.1155 72.7934 20.5755 72.8054 20.0595C72.8534 19.0155 73.1054 18.1335 73.5614 17.4135C74.0174 16.6815 74.6534 16.1295 75.4694 15.7575C76.2854 15.3735 77.2514 15.1815 78.3674 15.1815C79.1594 15.1815 79.8914 15.2835 80.5634 15.4875C81.2354 15.6795 81.8234 15.9675 82.3274 16.3515C82.8314 16.7235 83.2214 17.1795 83.4974 17.7195C83.7854 18.2475 83.9354 18.8475 83.9474 19.5195C83.9594 19.6275 83.9234 19.7175 83.8394 19.7895C83.7674 19.8615 83.6774 19.8975 83.5694 19.8975H81.1394C80.9834 19.8975 80.8634 19.8675 80.7794 19.8075C80.6954 19.7355 80.6234 19.6095 80.5634 19.4295C80.3954 18.7935 80.1194 18.3615 79.7354 18.1335C79.3634 17.8935 78.9014 17.7735 78.3494 17.7735C77.6894 17.7735 77.1674 17.9595 76.7834 18.3315C76.3994 18.6915 76.1894 19.2975 76.1534 20.1495C76.1174 21.1335 76.1174 22.1415 76.1534 23.1735C76.1894 24.0255 76.3994 24.6375 76.7834 25.0095C77.1674 25.3695 77.6894 25.5495 78.3494 25.5495C78.9014 25.5495 79.3694 25.4295 79.7534 25.1895C80.1374 24.9495 80.4074 24.5175 80.5634 23.8935C80.6114 23.7135 80.6774 23.5935 80.7614 23.5335C80.8574 23.4615 80.9834 23.4255 81.1394 23.4255H83.5694C83.6774 23.4255 83.7674 23.4615 83.8394 23.5335C83.9234 23.6055 83.9594 23.6955 83.9474 23.8035C83.9354 24.4755 83.7854 25.0815 83.4974 25.6215C83.2214 26.1495 82.8314 26.6055 82.3274 26.9895C81.8234 27.3615 81.2354 27.6495 80.5634 27.8535C79.8914 28.0455 79.1594 28.1415 78.3674 28.1415ZM90.0701 28.1415C89.0621 28.1415 88.2101 27.9795 87.5141 27.6555C86.8301 27.3315 86.3021 26.8695 85.9301 26.2695C85.5701 25.6575 85.3661 24.9315 85.3181 24.0915C85.3061 23.8515 85.3001 23.5815 85.3001 23.2815C85.3001 22.9695 85.3061 22.6995 85.3181 22.4715C85.3661 21.6195 85.5821 20.8935 85.9661 20.2935C86.3501 19.6935 86.8841 19.2315 87.5681 18.9075C88.2641 18.5835 89.0981 18.4215 90.0701 18.4215C91.0541 18.4215 91.8881 18.5835 92.5721 18.9075C93.2681 19.2315 93.8081 19.6935 94.1921 20.2935C94.5761 20.8935 94.7921 21.6195 94.8401 22.4715C94.8521 22.6995 94.8581 22.9695 94.8581 23.2815C94.8581 23.5815 94.8521 23.8515 94.8401 24.0915C94.7921 24.9315 94.5821 25.6575 94.2101 26.2695C93.8501 26.8695 93.3221 27.3315 92.6261 27.6555C91.9421 27.9795 91.0901 28.1415 90.0701 28.1415ZM90.0701 25.9455C90.6101 25.9455 91.0001 25.7835 91.2401 25.4595C91.4921 25.1355 91.6361 24.6495 91.6721 24.0015C91.6841 23.8215 91.6901 23.5815 91.6901 23.2815C91.6901 22.9815 91.6841 22.7415 91.6721 22.5615C91.6361 21.9255 91.4921 21.4455 91.2401 21.1215C91.0001 20.7855 90.6101 20.6175 90.0701 20.6175C89.5421 20.6175 89.1521 20.7855 88.9001 21.1215C88.6481 21.4455 88.5101 21.9255 88.4861 22.5615C88.4741 22.7415 88.4681 22.9815 88.4681 23.2815C88.4681 23.5815 88.4741 23.8215 88.4861 24.0015C88.5101 24.6495 88.6481 25.1355 88.9001 25.4595C89.1521 25.7835 89.5421 25.9455 90.0701 25.9455ZM97.0784 27.9615C96.9464 27.9615 96.8384 27.9195 96.7544 27.8355C96.6704 27.7515 96.6284 27.6435 96.6284 27.5115V19.0515C96.6284 18.9315 96.6704 18.8295 96.7544 18.7455C96.8384 18.6495 96.9464 18.6015 97.0784 18.6015H99.1484C99.2804 18.6015 99.3884 18.6495 99.4724 18.7455C99.5564 18.8295 99.5984 18.9315 99.5984 19.0515V19.7715C99.9224 19.3995 100.306 19.1115 100.75 18.9075C101.206 18.7035 101.716 18.6015 102.28 18.6015H103.072C103.192 18.6015 103.294 18.6435 103.378 18.7275C103.474 18.8115 103.522 18.9195 103.522 19.0515V20.9055C103.522 21.0255 103.474 21.1335 103.378 21.2295C103.294 21.3135 103.192 21.3555 103.072 21.3555H101.326C100.834 21.3555 100.45 21.4935 100.174 21.7695C99.9104 22.0335 99.7784 22.4115 99.7784 22.9035V27.5115C99.7784 27.6435 99.7304 27.7515 99.6344 27.8355C99.5504 27.9195 99.4424 27.9615 99.3104 27.9615H97.0784ZM109.16 28.1415C108.152 28.1415 107.3 27.9795 106.604 27.6555C105.92 27.3315 105.392 26.8695 105.02 26.2695C104.66 25.6575 104.456 24.9315 104.408 24.0915C104.396 23.8515 104.39 23.5815 104.39 23.2815C104.39 22.9695 104.396 22.6995 104.408 22.4715C104.456 21.6195 104.672 20.8935 105.056 20.2935C105.44 19.6935 105.974 19.2315 106.658 18.9075C107.354 18.5835 108.188 18.4215 109.16 18.4215C110.144 18.4215 110.978 18.5835 111.662 18.9075C112.358 19.2315 112.898 19.6935 113.282 20.2935C113.666 20.8935 113.882 21.6195 113.93 22.4715C113.942 22.6995 113.948 22.9695 113.948 23.2815C113.948 23.5815 113.942 23.8515 113.93 24.0915C113.882 24.9315 113.672 25.6575 113.3 26.2695C112.94 26.8695 112.412 27.3315 111.716 27.6555C111.032 27.9795 110.18 28.1415 109.16 28.1415ZM109.16 25.9455C109.7 25.9455 110.09 25.7835 110.33 25.4595C110.582 25.1355 110.726 24.6495 110.762 24.0015C110.774 23.8215 110.78 23.5815 110.78 23.2815C110.78 22.9815 110.774 22.7415 110.762 22.5615C110.726 21.9255 110.582 21.4455 110.33 21.1215C110.09 20.7855 109.7 20.6175 109.16 20.6175C108.632 20.6175 108.242 20.7855 107.99 21.1215C107.738 21.4455 107.6 21.9255 107.576 22.5615C107.564 22.7415 107.558 22.9815 107.558 23.2815C107.558 23.5815 107.564 23.8215 107.576 24.0015C107.6 24.6495 107.738 25.1355 107.99 25.4595C108.242 25.7835 108.632 25.9455 109.16 25.9455ZM116.168 27.9615C116.036 27.9615 115.928 27.9195 115.844 27.8355C115.76 27.7515 115.718 27.6435 115.718 27.5115V19.0515C115.718 18.9195 115.76 18.8115 115.844 18.7275C115.928 18.6435 116.036 18.6015 116.168 18.6015H118.238C118.37 18.6015 118.478 18.6435 118.562 18.7275C118.646 18.8115 118.688 18.9195 118.688 19.0515V19.7355C119 19.3635 119.408 19.0515 119.912 18.7995C120.416 18.5475 121.01 18.4215 121.694 18.4215C122.39 18.4215 123.002 18.5775 123.53 18.8895C124.07 19.2015 124.49 19.6635 124.79 20.2755C125.102 20.8755 125.258 21.6135 125.258 22.4895V27.5115C125.258 27.6435 125.21 27.7515 125.114 27.8355C125.03 27.9195 124.928 27.9615 124.808 27.9615H122.54C122.42 27.9615 122.312 27.9195 122.216 27.8355C122.132 27.7515 122.09 27.6435 122.09 27.5115V22.5975C122.09 22.0335 121.952 21.6015 121.676 21.3015C121.412 20.9895 121.016 20.8335 120.488 20.8335C119.996 20.8335 119.6 20.9895 119.3 21.3015C119.012 21.6015 118.868 22.0335 118.868 22.5975V27.5115C118.868 27.6435 118.82 27.7515 118.724 27.8355C118.64 27.9195 118.538 27.9615 118.418 27.9615H116.168ZM130.075 28.1415C129.427 28.1415 128.845 28.0215 128.329 27.7815C127.825 27.5295 127.423 27.1935 127.123 26.7735C126.823 26.3535 126.673 25.8795 126.673 25.3515C126.673 24.4995 127.021 23.8275 127.717 23.3355C128.413 22.8315 129.337 22.4895 130.489 22.3095L132.739 21.9675V21.7155C132.739 21.2835 132.649 20.9535 132.469 20.7255C132.289 20.4975 131.959 20.3835 131.479 20.3835C131.143 20.3835 130.867 20.4495 130.651 20.5815C130.447 20.7135 130.285 20.8935 130.165 21.1215C130.057 21.2775 129.907 21.3555 129.715 21.3555H127.699C127.567 21.3555 127.465 21.3195 127.393 21.2475C127.321 21.1635 127.291 21.0675 127.303 20.9595C127.303 20.7435 127.381 20.4975 127.537 20.2215C127.705 19.9335 127.957 19.6515 128.293 19.3755C128.629 19.0995 129.061 18.8715 129.589 18.6915C130.117 18.5115 130.753 18.4215 131.497 18.4215C132.277 18.4215 132.943 18.5115 133.495 18.6915C134.047 18.8715 134.491 19.1235 134.827 19.4475C135.175 19.7715 135.433 20.1555 135.601 20.5995C135.769 21.0315 135.853 21.5115 135.853 22.0395V27.5115C135.853 27.6435 135.805 27.7515 135.709 27.8355C135.625 27.9195 135.523 27.9615 135.403 27.9615H133.315C133.183 27.9615 133.075 27.9195 132.991 27.8355C132.907 27.7515 132.865 27.6435 132.865 27.5115V26.8815C132.709 27.1095 132.499 27.3195 132.235 27.5115C131.971 27.7035 131.659 27.8535 131.299 27.9615C130.951 28.0815 130.543 28.1415 130.075 28.1415ZM130.921 26.0895C131.269 26.0895 131.581 26.0175 131.857 25.8735C132.145 25.7175 132.367 25.4835 132.523 25.1715C132.691 24.8475 132.775 24.4455 132.775 23.9655V23.7135L131.245 23.9835C130.681 24.0795 130.267 24.2295 130.003 24.4335C129.751 24.6255 129.625 24.8535 129.625 25.1175C129.625 25.3215 129.685 25.4955 129.805 25.6395C129.925 25.7835 130.081 25.8975 130.273 25.9815C130.465 26.0535 130.681 26.0895 130.921 26.0895Z" fill="#EC5863"/>
<path d="M16.6049 5.02132C18.2238 4.4554 19.9988 5.20679 20.5687 6.69887C21.0049 7.84123 20.6076 9.0856 19.6724 9.86075L20.1723 11.2195L20.9715 12.1329C21.1539 12.3419 21.4313 12.4413 21.7097 12.4066C22.4603 12.313 23.206 12.3073 23.936 12.3811C24.1834 12.4064 24.4298 12.3247 24.6079 12.1534L25.1883 11.5974L25.6188 10.367C25.2573 9.87508 25.1364 9.22252 25.3535 8.60149C25.7219 7.54872 26.9166 7.0016 27.9762 7.42909C28.889 7.7969 29.3832 8.80144 29.1128 9.73842C28.941 10.3352 28.5094 10.7831 27.9791 11.0057L27.5026 12.3693L27.608 13.1195C27.6443 13.3773 27.7984 13.6022 28.0242 13.7367C28.7832 14.1911 29.4799 14.7472 30.0911 15.3907C30.2965 15.6073 30.6036 15.6995 30.8993 15.6397L32.4209 15.333L34.1418 14.385C34.1533 13.549 34.6073 12.7394 35.4035 12.3007C36.6072 11.638 38.1277 12.0764 38.7644 13.2824C39.3391 14.3704 38.972 15.7412 37.9229 16.4152C37.1038 16.9406 36.1062 16.9244 35.3375 16.4802L33.6064 17.4333L32.6382 18.4505C32.3783 18.7235 32.2848 19.1086 32.3826 19.4686C32.3832 19.4708 32.3836 19.4722 32.3841 19.4743C32.5513 20.0948 32.6521 20.7185 32.6926 21.337C32.7161 21.7055 32.9259 22.0364 33.2555 22.2115L34.513 22.8797L37.0081 23.3381C37.4494 22.9575 38.0562 22.7723 38.6753 22.8855C39.7854 23.0897 40.4972 24.1754 40.2092 25.2713C39.9616 26.2098 39.026 26.8369 38.05 26.7169C37.3844 26.6351 36.848 26.2407 36.5609 25.7092L34.0497 25.2483L32.4992 25.4395C32.2134 25.4754 31.9634 25.6529 31.8461 25.9122C31.3793 26.9357 30.7365 27.8777 29.9441 28.6915C29.7471 28.8937 29.6726 29.1826 29.743 29.4527L30.1237 30.923L31.0701 32.3915C32.1167 32.2334 33.2037 32.6764 33.8046 33.6092C34.6126 34.8623 34.2393 36.5259 32.9734 37.3397C31.7082 38.1534 29.9911 37.8061 29.1672 36.5687C28.5904 35.7024 28.5873 34.6316 29.0596 33.7807L28.0549 32.2221L26.8168 31.2182C26.6334 31.0687 26.3831 31.0298 26.1586 31.1094C25.9094 31.1978 25.6553 31.2769 25.3955 31.3461C23.9838 31.7223 22.5615 31.7745 21.2095 31.5511C21.0113 31.5188 20.8083 31.5752 20.6562 31.7054L19.9884 32.2786L19.4893 33.4839C19.8229 33.9955 19.9065 34.6534 19.655 35.2616C19.2276 36.2936 18.0043 36.7746 16.971 36.2899C16.0812 35.8726 15.6442 34.8422 15.9669 33.921C16.1724 33.3342 16.6275 32.9104 17.1695 32.7173L17.7223 31.3814L17.624 30.2098C16.6363 29.6012 15.758 28.8191 15.0407 27.8938L13.3476 28.0637L11.761 28.8415C11.7682 29.8899 11.2182 30.8892 10.2569 31.3749C8.89847 32.0607 7.23426 31.4621 6.5402 30.0374C5.84633 28.6133 6.38409 26.9028 7.74251 26.2171C8.75907 25.7037 9.94618 25.9095 10.7703 26.643L12.2666 25.9091L13.3068 24.8088C13.3748 24.7367 13.4002 24.6357 13.3748 24.5414L13.3744 24.54C12.9006 22.7814 12.9549 21.0021 13.4407 19.3656C13.4668 19.2758 13.4477 19.179 13.3867 19.1079L12.4954 18.0564L10.5712 17.0643C10.0397 17.2964 9.41039 17.2976 8.85783 17.0124C7.85961 16.4971 7.50314 15.2544 8.10206 14.2877C8.62785 13.44 9.74322 13.1154 10.6468 13.5465C11.2317 13.8254 11.608 14.3491 11.7179 14.9293L13.6421 15.9214L15.0135 16.0447C15.1087 16.0535 15.2016 16.0136 15.2623 15.9404C15.8867 15.1804 16.6294 14.509 17.4725 13.9575C17.7038 13.8054 17.8481 13.5542 17.8526 13.2809L17.8704 12.0525L17.3372 10.6046C16.1718 10.5253 15.1195 9.83212 14.7049 8.74707C14.1351 7.255 14.9858 5.58653 16.6049 5.02132Z" fill="#EC5863"/>
<path d="M29.9173 20.1317C28.8883 16.3125 24.9031 14.0561 21.0161 15.0919C17.1291 16.1277 14.8122 20.0634 15.8412 23.8826C16.8702 27.7018 20.8554 29.9582 24.7424 28.9224C28.6295 27.8866 30.9463 23.9508 29.9173 20.1317Z" fill="#F58A97"/>
<path d="M24.1745 26.8146C20.6521 27.7533 17.0492 25.9885 15.6384 22.8071C15.6775 23.165 15.7446 23.5243 15.8412 23.8826C16.8702 27.7019 20.8553 29.9582 24.7424 28.9224C28.6296 27.8866 30.9464 23.9509 29.9173 20.1317C29.8208 19.7733 29.6983 19.4288 29.5522 19.0994C29.9298 22.5561 27.6969 25.876 24.1745 26.8146Z" fill="#F07281"/>
<path d="M13.2189 37.0522C12.9259 35.9646 11.791 35.322 10.6841 35.617C9.57718 35.9119 8.9174 37.0327 9.21043 38.1203C9.50346 39.2079 10.6383 39.8505 11.7453 39.5555C12.8522 39.2605 13.512 38.1398 13.2189 37.0522Z" fill="#EB5569"/>
<path d="M39.1027 30.7317C38.9091 30.0133 38.1595 29.5889 37.4284 29.7837C36.6973 29.9786 36.2615 30.7189 36.455 31.4372C36.6486 32.1556 37.3982 32.58 38.1293 32.3852C38.8604 32.1903 39.2962 31.4501 39.1027 30.7317Z" fill="#EB5569"/>
<path d="M35.4689 6.10323C35.1838 5.04512 34.0797 4.41999 33.0028 4.70696C31.9259 4.99393 31.284 6.08433 31.5691 7.14244C31.8541 8.20055 32.9583 8.82568 34.0352 8.53871C35.1121 8.25174 35.754 7.16134 35.4689 6.10323Z" fill="#EB5569"/>
<path d="M23.3281 24.1626C23.0623 23.1761 22.0329 22.5933 21.0289 22.8608C20.0249 23.1284 19.4265 24.1449 19.6923 25.1314C19.9581 26.1179 20.9874 26.7007 21.9914 26.4332C22.9954 26.1656 23.5939 25.149 23.3281 24.1626Z" fill="#EB5569"/>
<path d="M28.0078 21.3788C27.8269 20.7074 27.1262 20.3107 26.4428 20.4928C25.7595 20.6749 25.3521 21.3668 25.533 22.0383C25.7139 22.7097 26.4146 23.1064 27.098 22.9243C27.7813 22.7422 28.1887 22.0503 28.0078 21.3788Z" fill="#EB5569"/>
<path d="M23.0753 18.6015C22.9234 18.0376 22.335 17.7045 21.7612 17.8575C21.1874 18.0104 20.8453 18.5914 20.9972 19.1552C21.1491 19.7191 21.7375 20.0522 22.3113 19.8993C22.8852 19.7463 23.2272 19.1653 23.0753 18.6015Z" fill="#EB5569"/>
</svg>
